HIERARCHY
ROOT Hips
{
	OFFSET 0.00000 0.00000 0.00000
	CHANNELS 6 Xposition Yposition Zposition Yrotation Zrotation Xrotation 
	JOINT Lumbar
	{
		OFFSET 0 0 0
		CHANNELS 3 Zrotation Xrotation Yrotation
		JOINT Neck
		{
			OFFSET 0.00 0.2701 0.00
			CHANNELS 3 Zrotation Xrotation Yrotation
			End Site
			{
				OFFSET 0.00 0.1379 0.00
			}
		}
		JOINT RightShoulder
		{
			OFFSET 0.0119 0.2289 0.1181
			CHANNELS 3 Zrotation Xrotation Yrotation
			JOINT RightElbow
			{
				OFFSET 0.00 -0.1475 0.00
				CHANNELS 2 Zrotation Yrotation
				JOINT RightWrist
				{
					OFFSET 0.00 -0.1605 0.00
					CHANNELS 2 Zrotation Xrotation
					End Site
					{
						OFFSET 0.0040 -0.1068 0.0006
					}
				}
			}
		}
		JOINT LeftShoulder
		{
			OFFSET 0.0119 0.2289 -0.1181
			CHANNELS 3 Zrotation Xrotation Yrotation
			JOINT LeftElbow
			{
				OFFSET 0.00 -0.1475 0.00
				CHANNELS 2 Zrotation Yrotation
				JOINT LeftWrist
				{
					OFFSET 0.00 -0.1605 0.00
					CHANNELS 2 Zrotation Xrotation
					End Site
					{
						OFFSET 0.0040 -0.1068 -0.0006
					}
				}
			}
		}
	}
	JOINT RightHip
	{
		OFFSET 0.0316 -0.0424 0.0458
		CHANNELS 3 Zrotation Xrotation Yrotation
		JOINT RightKnee
		{
			OFFSET 0.00 -0.2438 0.00
			CHANNELS 1 Zrotation
			JOINT RightAnkle
			{
				OFFSET 0.00 -0.2449 0.00
				CHANNELS 3 Zrotation Xrotation Yrotation
				End Site
				{
					OFFSET 0.1237 -0.0542 0.0051
				}
			}
		}
	}
	JOINT LeftHip
	{
		OFFSET 0.0316 -0.0424 -0.0458
		CHANNELS 3 Zrotation Xrotation Yrotation
		JOINT LeftKnee
		{
			OFFSET 0.00 -0.2438 0.00
			CHANNELS 1 Zrotation
			JOINT LeftAnkle
			{
				OFFSET 0.00 -0.2449 0.00
				CHANNELS 3 Zrotation Xrotation Yrotation
				End Site
				{
					OFFSET 0.1237 -0.0542 -0.0051
				}
			}
		}
	}
}
MOTION
Frames: 20
Frame Time: 0.02
0 0.57926 -0 171.17446 0 -5.47451 7.69584 7.27113 -1.40252 -19.17887 -1.99547 -1.54958 13.92534 -10.80096 12.97457 9.86976 84.77105 -1.838 -3.60379 13.17821 15.9193 -20.99223 10.44087 -80.50774 -3.97699 2.73822 -6.40355 6.44462 -1.59454 -5.51945 -11.64171 -1.72269 -6.41812 -9.91068 6.9888 21.15997 0.08408 -5.78686 2.16641 3.88026
-1e-05 0.57918 0.00013 171.09869 0 -5.45434 7.63729 7.23093 -1.3775 -19.21624 -2.01519 -1.53343 13.94018 -10.79733 12.91464 9.89352 84.65393 -1.83862 -3.61919 13.08317 15.9938 -20.61247 10.30748 -80.59595 -3.99972 2.63522 -6.3257 6.41012 -1.34387 -5.66171 -11.56088 -1.71366 -6.56474 -9.91666 6.94784 21.42137 0.06942 -5.74533 2.20139 3.68458
-1e-05 0.5791 0.00026 171.02327 0 -5.43434 7.57909 7.19113 -1.35275 -19.25352 -2.03499 -1.51754 13.95474 -10.7935 12.85393 9.9167 84.53698 -1.83913 -3.63436 12.98893 16.06816 -20.23569 10.17529 -80.68345 -4.02218 2.53302 -6.24838 6.3758 -1.09494 -5.80318 -11.48059 -1.70474 -6.71033 -9.92262 6.90711 21.67917 0.05461 -5.70398 2.23599 3.49221
-2e-05 0.57902 0.00039 170.94879 0 -5.41483 7.52175 7.15239 -1.32879 -19.29017 -2.05506 -1.50253 13.96784 -10.78911 12.78969 9.93809 84.41916 -1.83915 -3.64888 12.89575 16.14244 -19.86593 10.0459 -80.76896 -4.04387 2.43257 -6.17246 6.34194 -0.85091 -5.94273 -11.40169 -1.6962 -6.85301 -9.92852 6.86702 21.92402 0.0391 -5.66309 2.26944 3.31205
-1e-05 0.57893 0.00052 170.86961 0 -5.39273 7.4599 7.10787 -1.30063 -19.32938 -2.0734 -1.48284 13.98806 -10.78801 12.74435 9.96929 84.30551 -1.84169 -3.667 12.79546 16.21684 -19.45753 9.90084 -80.86498 -4.06974 2.32231 -6.08921 6.30573 -0.58141 -6.09231 -11.31542 -1.68564 -7.01086 -9.93468 6.82367 22.23617 0.02736 -5.61994 2.30899 3.06825
-5e-05 0.57886 0.00066 170.80027 0 -5.37614 7.40763 7.07573 -1.28137 -19.36365 -2.09556 -1.47309 13.99361 -10.77971 12.65897 9.9795 84.18344 -1.83892 -3.67736 12.71129 16.29111 -19.13226 9.78964 -80.93867 -4.08669 2.23331 -6.02149 6.27448 -0.3657 -6.22064 -11.24482 -1.67938 -7.13661 -9.94033 6.78719 22.40656 0.00758 -5.5815 2.33561 2.95857
-0.00026 0.57884 0.0008 170.75886 0 -5.37489 7.38141 7.07725 -1.28704 -19.38078 -2.12778 -1.49127 13.95436 -10.75254 12.45751 9.93157 84.03118 -1.82084 -3.66679 12.66297 16.36548 -19.02742 9.76784 -80.95071 -4.07907 2.19942 -5.99669 6.25714 -0.30096 -6.29082 -11.21729 -1.68528 -7.17289 -9.94431 6.76995 22.1678 -0.03511 -5.55642 2.32589 3.23653
-0.00053 0.57884 0.00094 170.7272 0 -5.3792 7.36488 7.09136 -1.30162 -19.39387 -2.16398 -1.51942 13.90135 -10.71784 12.21646 9.86249 83.87147 -1.7975 -3.64831 12.63271 16.43979 -19.008 9.78121 -80.9403 -4.06254 2.18772 -5.98755 6.24478 -0.29002 -6.33952 -11.20561 -1.69548 -7.17693 -9.94783 6.75961 21.78868 -0.08586 -5.53599 2.30324 3.64726
-0.00076 0.57883 0.00109 170.69053 0 -5.38087 7.34416 7.10006 -1.31188 -19.41074 -2.19871 -1.54269 13.85701 -10.6859 11.9968 9.80305 83.71956 -1.77696 -3.63305 12.59943 16.51377 -18.95541 9.78087 -80.94006 -4.04988 2.16801 -5.97118 6.22997 -0.25276 -6.39784 -11.18678 -1.70355 -7.19638 -9.95176 6.74589 21.48525 -0.13247 -5.51315 2.28687 3.98607
-0.00101 0.57882 0.00123 170.65631 0 -5.38294 7.3226 7.10744 -1.32328 -19.41821 -2.23198 -1.56736 13.80127 -10.65688 11.76268 9.74321 83.54926 -1.75465 -3.61922 12.54321 16.58884 -18.87927 9.77 -80.93963 -4.0375 2.13909 -5.95523 6.21588 -0.22328 -6.45686 -11.16765 -1.71238 -7.21277 -9.95489 6.73309 21.13256 -0.18099 -5.49156 2.2687 4.37276
-0.00126 0.57882 0.00138 170.61928 0 -5.38558 7.30502 7.12055 -1.33442 -19.44578 -2.26926 -1.59157 13.76751 -10.61986 11.54947 9.67955 83.41522 -1.73482 -3.60069 12.54037 16.66215 -18.87214 9.79061 -80.93466 -4.02303 2.13523 -5.94221 6.20156 -0.19052 -6.50919 -11.15303 -1.72062 -7.22767 -9.95952 6.72013 20.84792 -0.22757 -5.46847 2.25133 4.69249
-0.00149 0.57882 0.00153 170.57236 0 -5.38779 7.29687 7.14664 -1.34232 -19.51954 -2.31709 -1.61197 13.78707 -10.56272 11.40143 9.60707 83.38522 -1.72293 -3.56973 12.67132 16.72761 -19.03815 9.87963 -80.91964 -3.99993 2.19004 -5.93287 6.1848 -0.13413 -6.54957 -11.14593 -1.72636 -7.24825 -9.96888 6.70409 20.79629 -0.26564 -5.44012 2.23821 4.78384
-0.00173 0.57882 0.00168 170.5222 0 -5.3905 7.29241 7.17808 -1.3495 -19.61719 -2.36919 -1.63212 13.83283 -10.49705 11.27587 9.532 83.39146 -1.71376 -3.53456 12.85854 16.79278 -19.27058 10.00127 -80.90155 -3.97621 2.27043 -5.92604 6.16775 -0.0728 -6.58373 -11.14297 -1.73132 -7.26813 -9.9797 6.68781 20.81627 -0.30166 -5.41011 2.22654 4.80497
-0.00197 0.57881 0.00183 170.47339 0 -5.39342 7.28545 7.2068 -1.35748 -19.70861 -2.41844 -1.65179 13.8716 -10.4361 11.14196 9.4605 83.37984 -1.70351 -3.50225 13.02419 16.85892 -19.4696 10.1141 -80.88664 -3.9558 2.34223 -5.91845 6.15127 -0.01467 -6.61986 -11.13884 -1.7365 -7.28704 -9.98953 6.67228 20.79599 -0.33942 -5.38087 2.21496 4.86582
-0.00221 0.57881 0.00198 170.42553 0 -5.39475 7.28152 7.23684 -1.36461 -19.77378 -2.46976 -1.67212 13.88256 -10.37424 11.00025 9.37864 83.37423 -1.69245 -3.4657 13.1676 16.91779 -19.68287 10.20153 -80.86276 -3.92135 2.40129 -5.90982 6.13317 0.04554 -6.65878 -11.13242 -1.74236 -7.31013 -10.00062 6.65436 20.80211 -0.3742 -5.35173 2.19984 4.89953
-0.00245 0.57881 0.00213 170.37466 0 -5.39936 7.27303 7.26568 -1.3722 -19.9076 -2.52011 -1.69361 13.9661 -10.3087 10.87879 9.31744 83.36434 -1.68374 -3.43705 13.37795 16.99643 -19.88403 10.35069 -80.85795 -3.91726 2.49354 -5.90373 6.11823 0.10341 -6.69081 -11.13138 -1.74658 -7.32495 -10.00958 6.64115 20.77367 -0.41442 -5.32191 2.19251 4.96986
-0.00267 0.57882 0.00224 170.31749 0 -5.41355 7.24246 7.28609 -1.39035 -20.15536 -2.54747 -1.69553 14.17349 -10.26548 10.82347 9.31889 83.33772 -1.68143 -3.43159 13.69576 17.09103 -20.01055 10.64987 -80.90281 -3.98874 2.66354 -5.9042 6.11266 0.15255 -6.70449 -11.14559 -1.74632 -7.31566 -10.01106 6.64209 20.61907 -0.47165 -5.29075 2.20716 5.17074
-0.00289 0.57882 0.00233 170.2572 0 -5.43084 7.20878 7.30579 -1.40762 -20.48489 -2.57792 -1.70316 14.46649 -10.21256 10.78478 9.3404 83.3048 -1.6813 -3.43421 14.09102 17.21376 -20.127 11.01278 -80.9699 -4.09334 2.86724 -5.90704 6.1101 0.19957 -6.71171 -11.16477 -1.74443 -7.29849 -10.01056 6.6475 20.43018 -0.53414 -5.25893 2.2295 5.40805
-0.00312 0.57883 0.00244 170.19739 0 -5.44629 7.18206 7.32822 -1.41881 -20.82223 -2.61877 -1.72272 14.76593 -10.14505 10.72863 9.34961 83.27224 -1.67984 -3.43293 14.49213 17.34775 -20.26374 11.35372 -81.02671 -4.18715 3.0606 -5.90857 6.1058 0.24862 -6.72261 -11.18067 -1.74334 -7.28602 -10.01183 6.65014 20.26659 -0.59315 -5.22727 2.24784 5.6198
-0.00333 0.57884 0.00254 170.14109 0 -5.46368 7.13187 7.34057 -1.45582 -20.96872 -2.60735 -1.67968 14.87352 -10.16015 10.71596 9.37222 83.25167 -1.67997 -3.43242 14.72096 17.37619 -20.33573 11.66383 -81.07551 -4.25911 3.23447 -5.91111 6.10324 0.29357 -6.73028 -11.20097 -1.74194 -7.26877 -10.00959 6.65602 20.06517 -0.65655 -5.19606 2.26836 5.86667
